<!-- Generated by IcoMoon.io -->
<svg version="1.1" xmlns="http://www.w3.org/2000/svg" width="16" height="16" viewBox="0 0 16 16">
<title>login</title>
<path d="M6.833 7.5h-6.333c-0.276 0-0.5-0.224-0.5-0.5s0.224-0.5 0.5-0.5h6.333c0.276 0 0.5 0.224 0.5 0.5s-0.224 0.5-0.5 0.5z"></path>
<path d="M4.333 10c-0.128 0-0.256-0.049-0.353-0.147-0.195-0.195-0.195-0.512 0-0.707l2.147-2.147-2.147-2.146c-0.195-0.195-0.195-0.512 0-0.707s0.512-0.195 0.707 0l2.5 2.5c0.195 0.195 0.195 0.512 0 0.707l-2.5 2.5c-0.098 0.098-0.226 0.147-0.354 0.147z"></path>
<path d="M10.667 16c-0.735 0-1.333-0.598-1.333-1.333v-12c0-0.57 0.363-1.079 0.903-1.266l4.005-1.335c0.896-0.275 1.759 0.39 1.759 1.268v12c0 0.569-0.363 1.077-0.902 1.265l-4.007 1.336c-0.146 0.045-0.281 0.065-0.425 0.065zM14.667 1c-0.043 0-0.080 0.005-0.119 0.017l-3.989 1.33c-0.131 0.045-0.225 0.177-0.225 0.319v12c0 0.227 0.247 0.381 0.453 0.316l3.989-1.33c0.13-0.045 0.225-0.177 0.225-0.319v-12c0-0.183-0.149-0.333-0.333-0.333z"></path>
<path d="M5.833 3.333c-0.276 0-0.5-0.224-0.5-0.5v-1c0-1.011 0.822-1.833 1.833-1.833h7.5c0.276 0 0.5 0.224 0.5 0.5s-0.224 0.5-0.5 0.5h-7.5c-0.459 0-0.833 0.374-0.833 0.833v1c0 0.276-0.224 0.5-0.5 0.5z"></path>
<path d="M9.833 14h-2.667c-1.011 0-1.833-0.822-1.833-1.833v-1c0-0.276 0.224-0.5 0.5-0.5s0.5 0.224 0.5 0.5v1c0 0.459 0.374 0.833 0.833 0.833h2.667c0.276 0 0.5 0.224 0.5 0.5s-0.224 0.5-0.5 0.5z"></path>
</svg>
