<!-- Generated by IcoMoon.io -->
<svg version="1.1" xmlns="http://www.w3.org/2000/svg" width="16" height="16" viewBox="0 0 16 16">
<title>logout</title>
<path d="M15.5 7.5h-6.333c-0.276 0-0.5-0.224-0.5-0.5s0.224-0.5 0.5-0.5h6.333c0.276 0 0.5 0.224 0.5 0.5s-0.224 0.5-0.5 0.5z"></path>
<path d="M13 10c-0.128 0-0.256-0.049-0.353-0.147-0.195-0.195-0.195-0.512 0-0.707l2.147-2.147-2.147-2.147c-0.195-0.195-0.195-0.512 0-0.707s0.512-0.195 0.707 0l2.5 2.5c0.195 0.195 0.195 0.512 0 0.707l-2.5 2.5c-0.098 0.099-0.226 0.147-0.354 0.147z"></path>
<path d="M5.333 16c-0.143 0-0.278-0.020-0.413-0.062l-4.012-1.337c-0.546-0.191-0.908-0.699-0.908-1.268v-12c0-0.735 0.598-1.333 1.333-1.333 0.143 0 0.278 0.020 0.413 0.062l4.012 1.337c0.546 0.191 0.908 0.699 0.908 1.268v12c0 0.735-0.598 1.333-1.333 1.333zM1.333 1c-0.183 0-0.333 0.15-0.333 0.333v12c0 0.142 0.095 0.274 0.231 0.321l3.993 1.331c0.029 0.009 0.066 0.015 0.109 0.015 0.183 0 0.333-0.15 0.333-0.333v-12c0-0.142-0.095-0.274-0.231-0.321l-3.993-1.331c-0.029-0.009-0.066-0.015-0.109-0.015z"></path>
<path d="M10.166 5.333c-0.276 0-0.5-0.224-0.5-0.5v-3c0-0.459-0.374-0.833-0.833-0.833h-7.5c-0.276 0-0.5-0.224-0.5-0.5s0.224-0.5 0.5-0.5h7.5c1.011 0 1.833 0.822 1.833 1.833v3c0 0.276-0.224 0.5-0.5 0.5z"></path>
<path d="M8.833 14h-2.667c-0.276 0-0.5-0.224-0.5-0.5s0.224-0.5 0.5-0.5h2.667c0.459 0 0.833-0.374 0.833-0.833v-3c0-0.276 0.224-0.5 0.5-0.5s0.5 0.224 0.5 0.5v3c0 1.011-0.822 1.833-1.833 1.833z"></path>
</svg>
