<!-- Generated by IcoMoon.io -->
<svg version="1.1" xmlns="http://www.w3.org/2000/svg" width="16" height="16" viewBox="0 0 16 16">
<title>oops</title>
<path d="M11.265 7.672c0-0.54-0.44-0.98-0.98-0.98s-0.98 0.439-0.98 0.98 0.44 0.98 0.98 0.98 0.98-0.44 0.98-0.98zM9.633 7.672c0-0.36 0.293-0.653 0.653-0.653s0.653 0.293 0.653 0.653-0.293 0.653-0.653 0.653c-0.36 0-0.653-0.293-0.653-0.653z"></path>
<path d="M5.714 8.652c0.54 0 0.98-0.44 0.98-0.98s-0.439-0.98-0.98-0.98-0.98 0.439-0.98 0.98 0.439 0.98 0.98 0.98zM5.714 7.019c0.36 0 0.653 0.293 0.653 0.653s-0.293 0.653-0.653 0.653-0.653-0.293-0.653-0.653 0.293-0.653 0.653-0.653z"></path>
<path d="M15.91 9.977c-0.259-0.13-0.514-0.241-0.762-0.34 0.023-0.215 0.036-0.434 0.036-0.659 0-0.493-0.080-0.989-0.236-1.483 0.329-0.144 0.66-0.309 0.974-0.5 0.077-0.047 0.102-0.147 0.055-0.224s-0.148-0.101-0.225-0.055c-0.293 0.178-0.602 0.333-0.912 0.469-0.105-0.276-0.238-0.552-0.392-0.826 0.862-0.043 1.552-0.752 1.552-1.627-0.001-0.062-0.045-1.534-1.501-3.525-0.061-0.084-0.202-0.084-0.264 0-0.153 0.209-0.287 0.411-0.411 0.609-1.263 0.058-2.825 0.27-3.435 0.93-0.559-0.181-1.116-0.252-1.546-0.293-0.088-0.006-0.169 0.057-0.178 0.147s0.057 0.169 0.147 0.178c0.661 0.064 1.133 0.157 1.577 0.313 0.386 0.135 0.825 0.351 1.306 0.642 0.026 0.016 0.056 0.024 0.085 0.024 0.049 0 0.097-0.022 0.129-0.063 0.079-0.101 0.173-0.197 0.295-0.304 0.068-0.059 0.075-0.163 0.016-0.231s-0.163-0.075-0.23-0.016c-0.094 0.082-0.174 0.16-0.245 0.238-0.366-0.216-0.7-0.382-1.013-0.509 0.421-0.351 1.297-0.591 2.535-0.694-0.22 0.087-0.423 0.185-0.611 0.298-0.077 0.046-0.102 0.147-0.056 0.224 0.031 0.051 0.085 0.079 0.14 0.079 0.029 0 0.058-0.008 0.084-0.024 0.191-0.115 0.402-0.214 0.633-0.302-0.693 1.331-0.722 2.231-0.723 2.281 0 0.794 0.571 1.456 1.323 1.601 0.195 0.324 0.356 0.649 0.48 0.975-1.268 0.504-2.464 0.685-2.48 0.687-0.089 0.013-0.151 0.096-0.138 0.185 0.012 0.081 0.082 0.14 0.161 0.14 0.008 0 0.016-0.001 0.024-0.002 0.066-0.009 1.255-0.188 2.54-0.699 0.141 0.454 0.212 0.907 0.212 1.357 0 0.184-0.012 0.362-0.028 0.538-1.488-0.529-2.659-0.539-2.745-0.539-0.091-0.005-0.166 0.072-0.166 0.164s0.073 0.163 0.163 0.163h0.001c0.024 0 1.214 0.008 2.7 0.546-0.443 2.831-3.053 4.68-6.782 4.68s-6.339-1.848-6.782-4.68c1.488-0.538 2.681-0.546 2.701-0.546h0c0.090 0 0.163-0.073 0.164-0.163s-0.073-0.163-0.163-0.164c-0.068-0.002-1.243 0.003-2.748 0.539-0.017-0.176-0.028-0.355-0.028-0.538 0-0.443 0.078-0.894 0.225-1.351 1.28 0.509 2.461 0.69 2.527 0.7 0.008 0.001 0.016 0.002 0.024 0.002 0.080 0 0.149-0.058 0.161-0.139 0.013-0.089-0.048-0.172-0.137-0.185-0.016-0.002-1.203-0.185-2.468-0.688 0.213-0.545 0.526-1.098 0.942-1.656 0.028-0.038 0.038-0.087 0.028-0.133s-0.041-0.086-0.082-0.109c-0.012-0.007-1.168-0.662-1.217-3.282 0.367 0.031 1.265 0.152 2.040 0.616 0.026 0.016 0.055 0.023 0.084 0.023 0.056 0 0.11-0.028 0.14-0.079 0.046-0.077 0.021-0.178-0.056-0.224-0.225-0.135-0.46-0.242-0.69-0.328 1.016 0.071 2.129 0.265 2.627 0.721-0.307 0.124-0.635 0.289-1.011 0.512-0.076-0.085-0.162-0.161-0.246-0.235-0.068-0.060-0.17-0.054-0.231 0.014s-0.054 0.171 0.014 0.231c0.112 0.1 0.218 0.194 0.291 0.298 0.032 0.045 0.082 0.070 0.134 0.070 0.029 0 0.058-0.008 0.085-0.024 0.503-0.305 0.916-0.509 1.296-0.642 0.444-0.155 0.916-0.249 1.578-0.313 0.090-0.008 0.156-0.088 0.147-0.178s-0.089-0.154-0.178-0.147c-0.429 0.041-0.985 0.112-1.543 0.292-0.979-1.138-4.5-0.952-4.654-0.942-0.087 0.005-0.155 0.076-0.155 0.163 0 2.412 0.873 3.352 1.238 3.639-0.383 0.533-0.674 1.063-0.879 1.59-0.315-0.137-0.63-0.295-0.927-0.476-0.077-0.047-0.177-0.022-0.224 0.055s-0.022 0.178 0.055 0.224c0.319 0.194 0.653 0.361 0.987 0.506-0.162 0.499-0.249 0.992-0.249 1.478 0 0.224 0.012 0.444 0.036 0.659-0.248 0.098-0.503 0.21-0.762 0.34-0.081 0.040-0.113 0.138-0.073 0.219 0.029 0.057 0.087 0.090 0.146 0.090 0.024 0 0.049-0.006 0.073-0.017 0.226-0.113 0.45-0.212 0.669-0.3 0.495 2.96 3.217 4.887 7.095 4.887s6.6-1.928 7.095-4.887c0.219 0.088 0.442 0.187 0.669 0.3 0.023 0.012 0.048 0.017 0.073 0.017 0.060 0 0.117-0.033 0.146-0.090 0.040-0.081 0.008-0.179-0.073-0.219zM13.061 4.738c0-0.014 0.046-1.347 1.306-3.155 1.26 1.807 1.306 3.141 1.306 3.151 0 0.72-0.586 1.306-1.306 1.306s-1.306-0.586-1.306-1.302z"></path>
<path d="M7.85 2.777l0.15-0.001c0.055 0 0.11 0.001 0.165 0.002h0.004c0.088 0 0.161-0.071 0.163-0.16s-0.069-0.165-0.159-0.167c-0.058-0.001-0.115-0.002-0.172-0.002l-0.156 0.001c-0.090 0.002-0.162 0.076-0.16 0.166s0.074 0.16 0.166 0.16z"></path>
<path d="M4.899 6.369c0.056-0 1.371-0.019 2.375-0.686 0.075-0.050 0.095-0.151 0.046-0.226s-0.152-0.096-0.226-0.046c-0.921 0.612-2.184 0.631-2.197 0.631-0.090 0.001-0.163 0.075-0.162 0.165s0.074 0.162 0.163 0.162z"></path>
<path d="M11.103 6.042c-0.012 0-1.275-0.019-2.197-0.631-0.074-0.050-0.176-0.030-0.226 0.046s-0.030 0.177 0.046 0.226c1.003 0.667 2.319 0.685 2.374 0.686h0.001c0.089 0 0.162-0.072 0.163-0.162s-0.072-0.164-0.162-0.165z"></path>
<path d="M3.755 10.935c0 1.282 1.864 2.286 4.245 2.286s4.245-1.004 4.245-2.286c0-1.018-1.191-1.885-2.973-2.18-0.057-0.177-0.19-0.3-0.399-0.365-0.222-0.069-0.502-0.067-0.824-0.068h-0.097c-0.324-0.003-0.603-0.001-0.824 0.068-0.21 0.065-0.342 0.188-0.399 0.365-1.782 0.295-2.973 1.162-2.973 2.18zM7.224 8.702c0.165-0.051 0.414-0.054 0.681-0.054h0.143c0.288 0.001 0.553-0 0.727 0.054 0.149 0.046 0.204 0.12 0.204 0.273 0 0.497-0.826 0.962-0.973 0.98-0.164-0.022-0.986-0.482-0.986-0.98 0-0.153 0.055-0.227 0.204-0.273zM8 11.27c0.943 0 1.71-0.27 2.147-0.468-0.235 0.446-0.812 1.126-2.147 1.126s-1.91-0.68-2.143-1.126c0.435 0.199 1.201 0.468 2.143 0.468zM6.704 9.090c0.087 0.56 0.773 1.020 1.132 1.151v0.697c-1.275-0.046-2.189-0.612-2.198-0.618-0.055-0.035-0.126-0.034-0.18 0.004s-0.080 0.103-0.067 0.168c0.004 0.018 0.392 1.762 2.609 1.762s2.61-1.744 2.614-1.762c0.013-0.064-0.013-0.13-0.066-0.168s-0.125-0.039-0.181-0.004c-0.009 0.006-0.928 0.572-2.204 0.618v-0.695c0.363-0.128 1.048-0.581 1.133-1.153 1.553 0.276 2.622 1.020 2.622 1.845 0 1.062-1.794 1.959-3.918 1.959s-3.918-0.897-3.918-1.959c0-0.825 1.070-1.569 2.623-1.845z"></path>
</svg>
