<!-- Generated by IcoMoon.io -->
<svg version="1.1" xmlns="http://www.w3.org/2000/svg" width="16" height="16" viewBox="0 0 16 16">
<title>shop</title>
<path d="M14.005 2.175c0.129 0 0.235 0.105 0.235 0.235s-0.105 0.235-0.235 0.235h-0.345c-0.13 0-0.235-0.105-0.235-0.235s0.105-0.235 0.235-0.235zM11.798 11.875c-0.129 0-0.235-0.105-0.235-0.234s0.105-0.235 0.235-0.235h1.82c0.129 0 0.234 0.105 0.234 0.235s-0.105 0.234-0.234 0.234zM11.798 12.782c-0.129 0-0.235-0.105-0.235-0.235s0.105-0.235 0.235-0.235h1.091c0.13 0 0.235 0.105 0.235 0.235s-0.105 0.235-0.235 0.235zM8.821 10.712h1.698c0.293 0 0.533 0.239 0.533 0.533v1.698c0 0.293-0.239 0.533-0.533 0.533h-1.698c-0.293 0-0.533-0.239-0.533-0.533v-1.698c0-0.293 0.239-0.533 0.533-0.533zM10.518 11.181h-1.698c-0.035 0-0.064 0.029-0.064 0.064v1.698c0 0.035 0.029 0.064 0.064 0.064h1.698c0.035 0 0.064-0.029 0.064-0.064v-1.698c0-0.035-0.029-0.064-0.064-0.064zM5.657 11.875c-0.129 0-0.235-0.105-0.235-0.234s0.105-0.235 0.235-0.235h1.82c0.129 0 0.235 0.105 0.235 0.235s-0.105 0.234-0.235 0.234zM5.657 12.782c-0.129 0-0.235-0.105-0.235-0.235s0.105-0.235 0.235-0.235h1.092c0.129 0 0.234 0.105 0.234 0.235s-0.105 0.235-0.234 0.235zM4.441 12.625c0-0.129 0.105-0.235 0.234-0.235s0.235 0.105 0.235 0.235v0.318c0 0.293-0.239 0.533-0.533 0.533h-1.698c-0.293 0-0.533-0.239-0.533-0.533v-1.698c0-0.293 0.239-0.533 0.533-0.533h1.698c0.293 0 0.533 0.239 0.533 0.533v0.318c0 0.129-0.105 0.234-0.235 0.234s-0.234-0.105-0.234-0.234v-0.318c0-0.035-0.029-0.064-0.064-0.064h-1.698c-0.035 0-0.063 0.029-0.063 0.064v1.698c0 0.035 0.028 0.064 0.063 0.064h1.698c0.035 0 0.064-0.029 0.064-0.064zM11.798 8.463c-0.129 0-0.235-0.105-0.235-0.235s0.105-0.234 0.235-0.234h1.82c0.129 0 0.234 0.105 0.234 0.234s-0.105 0.235-0.234 0.235zM11.798 9.368c-0.129 0-0.235-0.105-0.235-0.234s0.105-0.235 0.235-0.235h1.091c0.13 0 0.235 0.105 0.235 0.235s-0.105 0.234-0.235 0.234zM8.821 7.3h1.698c0.293 0 0.533 0.239 0.533 0.532v1.699c0 0.293-0.239 0.532-0.533 0.532h-1.698c-0.293 0-0.533-0.238-0.533-0.532v-1.699c0-0.293 0.239-0.532 0.533-0.532zM10.518 7.769h-1.698c-0.035 0-0.064 0.029-0.064 0.063v1.699c0 0.035 0.029 0.063 0.064 0.063h1.698c0.035 0 0.064-0.028 0.064-0.063v-1.699c0-0.034-0.029-0.063-0.064-0.063zM5.657 8.463c-0.129 0-0.235-0.105-0.235-0.235s0.105-0.234 0.235-0.234h1.82c0.129 0 0.235 0.105 0.235 0.234s-0.105 0.235-0.235 0.235zM5.657 9.368c-0.129 0-0.235-0.105-0.235-0.234s0.105-0.235 0.235-0.235h1.092c0.129 0 0.234 0.105 0.234 0.235s-0.105 0.234-0.234 0.234zM4.441 9.212c0-0.129 0.105-0.235 0.234-0.235s0.235 0.105 0.235 0.235v0.318c0 0.293-0.239 0.532-0.533 0.532h-1.698c-0.293 0-0.533-0.238-0.533-0.532v-1.699c0-0.292 0.239-0.532 0.533-0.532h1.698c0.293 0 0.533 0.239 0.533 0.532v0.319c0 0.129-0.105 0.234-0.235 0.234s-0.234-0.105-0.234-0.234v-0.319c0-0.034-0.029-0.063-0.064-0.063h-1.698c-0.035 0-0.063 0.029-0.063 0.063v1.699c0 0.035 0.028 0.063 0.063 0.063h1.698c0.035 0 0.064-0.028 0.064-0.063zM1.198 1.192h13.604c0.129 0 0.234 0.105 0.234 0.235v1.903l0.206 0.393c0.059 0.114 0.015 0.256-0.099 0.315s-0.255 0.015-0.315-0.099l-0.163-0.311h-0.606v1.604c0 0.202 0.082 0.386 0.216 0.519s0.317 0.216 0.52 0.216c0.202 0 0.385-0.082 0.519-0.216 0.122-0.121 0.202-0.286 0.214-0.468l-0.21-0.402c-0.059-0.114-0.015-0.256 0.099-0.315s0.255-0.015 0.315 0.099l0.24 0.459c0.018 0.034 0.027 0.075 0.027 0.113-0.002 0.33-0.137 0.629-0.354 0.846-0.166 0.166-0.379 0.284-0.618 0.331l0.004 3.444c0 0.129-0.105 0.234-0.234 0.234s-0.233-0.105-0.233-0.234l-0.004-3.444c-0.296-0.059-0.558-0.228-0.737-0.47-0.227 0.308-0.586 0.493-0.97 0.493s-0.744-0.184-0.971-0.493c-0.227 0.308-0.586 0.493-0.97 0.493s-0.744-0.184-0.97-0.493c-0.228 0.308-0.586 0.493-0.971 0.493s-0.743-0.184-0.97-0.493c-0.228 0.308-0.586 0.493-0.971 0.493s-0.743-0.184-0.97-0.493c-0.227 0.308-0.586 0.493-0.97 0.493s-0.743-0.184-0.971-0.493c-0.227 0.308-0.586 0.493-0.97 0.493s-0.743-0.184-0.971-0.493c-0.181 0.246-0.449 0.416-0.751 0.472l0.007 7.924h13.137l-0.003-3.421c0-0.129 0.105-0.233 0.233-0.233s0.234 0.105 0.234 0.233l0.003 3.655c0 0.129-0.104 0.235-0.233 0.235h-13.604c-0.138 0-0.234-0.118-0.234-0.255l-0.007-8.143c-0.232-0.050-0.44-0.166-0.604-0.329-0.218-0.218-0.354-0.519-0.354-0.851 0-0.045 0.012-0.087 0.035-0.122l0.929-1.794v-1.888c0-0.129 0.105-0.235 0.235-0.235zM13.59 3.627h-1.473v1.604c0 0.202 0.083 0.386 0.216 0.519s0.318 0.216 0.52 0.216 0.386-0.082 0.519-0.216c0.134-0.133 0.217-0.317 0.217-0.519v-1.604zM11.648 3.627h-1.473v1.604c0 0.202 0.083 0.386 0.216 0.519s0.318 0.216 0.52 0.216c0.202 0 0.386-0.082 0.52-0.216s0.216-0.317 0.216-0.519v-1.604zM9.707 3.627h-1.473v1.604c0 0.202 0.083 0.386 0.217 0.519s0.317 0.216 0.519 0.216 0.386-0.082 0.52-0.216c0.134-0.133 0.216-0.317 0.216-0.519zM7.765 3.627h-1.472v1.604c0 0.202 0.082 0.386 0.216 0.519s0.317 0.216 0.519 0.216c0.203 0 0.386-0.082 0.52-0.216s0.216-0.317 0.216-0.519v-1.604zM5.824 3.627h-1.472v1.604c0 0.202 0.082 0.386 0.216 0.519s0.317 0.216 0.52 0.216c0.202 0 0.386-0.082 0.519-0.216s0.216-0.317 0.216-0.519zM3.883 3.627h-1.473v1.604c0 0.202 0.083 0.386 0.216 0.519s0.318 0.216 0.52 0.216c0.202 0 0.386-0.082 0.519-0.216s0.217-0.317 0.217-0.519zM1.942 3.627h-0.612l-0.859 1.656c0.013 0.182 0.093 0.346 0.215 0.467 0.133 0.134 0.317 0.216 0.519 0.216s0.386-0.082 0.52-0.216c0.133-0.133 0.216-0.317 0.216-0.519v-1.604zM14.567 1.661h-13.135v1.476h13.135zM11.72 2.175c0.129 0 0.234 0.105 0.234 0.235s-0.105 0.235-0.234 0.235h-0.346c-0.129 0-0.235-0.105-0.235-0.235s0.105-0.235 0.235-0.235zM12.862 2.175c0.129 0 0.235 0.105 0.235 0.235s-0.105 0.235-0.235 0.235h-0.346c-0.129 0-0.234-0.105-0.234-0.235s0.105-0.235 0.234-0.235z"></path>
</svg>
