<!-- Generated by IcoMoon.io -->
<svg version="1.1" xmlns="http://www.w3.org/2000/svg" width="16" height="16" viewBox="0 0 16 16">
<title>user</title>
<path d="M7.998 8.545c2.347 0 4.29-1.871 4.29-4.254s-1.942-4.29-4.29-4.29-4.29 1.871-4.29 4.254 1.942 4.29 4.29 4.29zM7.998 1.33c1.632 0 2.961 1.329 2.961 2.928s-1.329 2.925-2.961 2.925-2.961-1.329-2.961-2.928 1.329-2.925 2.961-2.925z"></path>
<path d="M10.891 8.953c-0.271-0.069-0.545 0-0.715 0.206l-2.178 2.484-2.178-2.484c-0.17-0.206-0.477-0.271-0.715-0.206-3.098 1.022-5.106 3.539-5.106 6.363 0 0.375 0.307 0.682 0.682 0.682h14.635c0.375 0 0.682-0.307 0.682-0.682-0.003-2.824-2.011-5.341-5.109-6.363zM1.394 14.67c0.274-1.871 1.636-3.47 3.745-4.286l2.383 2.723c0.238 0.307 0.748 0.307 0.986 0l2.383-2.723c2.076 0.816 3.474 2.448 3.745 4.286h-13.241z"></path>
</svg>
